<?xml version="1.0" encoding="utf-8"?>
<!-- Generator: Adobe Illustrator 15.1.0, SVG Export Plug-In . SVG Version: 6.00 Build 0)  -->
<!DOCTYPE svg PUBLIC "-//W3C//DTD SVG 1.1//EN" "http://www.w3.org/Graphics/SVG/1.1/DTD/svg11.dtd">
<svg version="1.1" id="Ebene_1" xmlns="http://www.w3.org/2000/svg" xmlns:xlink="http://www.w3.org/1999/xlink" x="0px" y="0px"
	 width="43.998px" height="44.124px" viewBox="193.083 -0.208 43.998 44.124" enable-background="new 193.083 -0.208 43.998 44.124"
	 xml:space="preserve">
<polygon fill="#004272" points="193.083,-0.208 237.081,-0.208 237.081,43.916 193.083,43.916 "/>
<g>
	
		<line fill="none" stroke="#FFFFFF" stroke-width="0.25" stroke-miterlimit="10" x1="195.957" y1="24.432" x2="234.207" y2="24.432"/>
	<g>
		<polygon fill="#FFFFFF" points="200.57,37.311 202.359,37.311 202.359,29.173 200.57,29.173 		"/>
		<polygon fill="#FFFFFF" points="203.932,37.311 209.688,37.311 209.688,35.809 205.721,35.809 205.721,29.173 203.932,29.173 		
			"/>
		<polygon fill="#FFFFFF" points="211.123,37.311 212.912,37.311 212.912,29.173 211.123,29.173 		"/>
		<path fill="#FFFFFF" d="M213.906,37.311h1.814l0.637-1.811h3.041l0.615,1.811h1.859l-3.041-8.138H217L213.906,37.311
			L213.906,37.311z M217.883,31.181h0.023l1.027,2.984h-2.109L217.883,31.181L217.883,31.181z"/>
		<path fill="#FFFFFF" d="M222.744,34.61c-0.023,2.008,1.664,2.896,3.465,2.896c2.213,0,3.385-1.118,3.385-2.61
			c0-1.849-1.822-2.223-2.418-2.371c-2.039-0.525-2.424-0.607-2.424-1.233c0-0.685,0.658-0.924,1.23-0.924
			c0.857,0,1.551,0.25,1.607,1.234h1.73c0-1.884-1.563-2.625-3.258-2.625c-1.471,0-3.045,0.798-3.045,2.462
			c0,1.531,1.221,1.998,2.428,2.314c1.199,0.319,2.418,0.468,2.418,1.346c0,0.835-0.959,1.017-1.586,1.017
			c-0.957,0-1.803-0.425-1.803-1.506L222.744,34.61L222.744,34.61z"/>
	</g>
	<g>
		<path fill="#FFFFFF" d="M234.081,10.505h-1.806l-2.457,7.343l-2.452-7.343h-2.053l-2.447,7.447l-2.467-7.447h-1.805l2.663,7.867
			c1.138-0.316,2.252-0.596,3.373-0.733l1.711-5.521l1.705,5.507c2.026,0.163,3.108,0.528,3.429,0.654L234.081,10.505"/>
		<path fill="#FFFFFF" d="M197.702,17.889c0.968-0.183,2.325-0.351,4.062-0.337c1.277,0.011,2.509,0.271,3.774,0.613v-2.21h-7.836
			V17.889 M213.307,10.28c2.103,0,3.859,0.479,5.283,1.435V6.202h-22.507v4.319h1.613v3.975h7.842v-3.975h1.621v8.099
			c0.293,0.085,0.589,0.17,0.889,0.252l0.88-1.161c1.533,0.939,3.182,1.407,4.948,1.407c1.143,0,2.031-0.157,2.66-0.473
			c0.603-0.309,0.905-0.729,0.905-1.26c0-0.619-0.395-1.034-1.188-1.24c-0.409-0.108-1.53-0.221-3.352-0.34
			c-1.614-0.109-2.743-0.322-3.39-0.648c-0.757-0.377-1.134-1.013-1.134-1.904c0-0.92,0.429-1.644,1.288-2.175
			C210.523,10.543,211.739,10.28,213.307,10.28z M218.323,15.399c0.095,0.073,0.187,0.158,0.267,0.242V11.74l-0.974,1.079
			c-1.448-0.737-2.925-1.107-4.431-1.107c-0.998,0-1.767,0.119-2.297,0.353c-0.531,0.234-0.798,0.558-0.798,0.973
			c0,0.433,0.284,0.749,0.853,0.945c0.406,0.145,1.068,0.244,1.987,0.299c1.35,0.09,2.24,0.161,2.674,0.217
			C216.829,14.656,217.735,14.959,218.323,15.399z"/>
	</g>
</g>
</svg>
